<?xml version="1.0" encoding="iso-8859-1"?>
<!-- Generator: Adobe Illustrator 19.0.0, SVG Export Plug-In . SVG Version: 6.00 Build 0)  -->
<svg version="1.1" id="Capa_1" xmlns="http://www.w3.org/2000/svg" xmlns:xlink="http://www.w3.org/1999/xlink" x="0px" y="0px"
	 viewBox="0 0 512 512" style="enable-background:new 0 0 512 512;" xml:space="preserve">
<path style="fill:#FF8087;" d="M8.128,44.702c0,0,89.397,48.762,105.651,113.778c62.476,40.127,70.095,106.667,70.095,106.667
	s82.794-21.333,108.698,39.619h24.381l-56.889-154.412C260.064,150.353,170.667,69.083,8.128,44.702z"/>
<path style="fill:#DC4655;" d="M267.294,154.761c-1.397-2.706-4.183-4.409-7.23-4.409H105.651c-4.492,0-8.127,3.639-8.127,8.127
	s3.635,8.127,8.127,8.127H244.27l-72.087,100.928c-2.611,3.651-1.762,8.726,1.889,11.337c1.429,1.02,3.079,1.512,4.714,1.512
	c2.54,0,5.032-1.183,6.619-3.405l81.27-113.778C268.445,160.726,268.683,157.468,267.294,154.761z"/>
<path style="fill:#D7AC6E;" d="M260.064,150.353c0,0-89.397-81.27-251.936-105.651c0,0,51.522,28.129,83.448,70.125
	c5.513,1.988,10.923,4.052,16.216,6.172c67.025,26.841,120.037,80.066,146.851,147.102c15.423,6.034,29.612,17.093,37.929,36.664
	h24.381L260.064,150.353z"/>
<path style="fill:#BEE86E;" d="M487.619,85.337H430.73c-35.907,0-65.016,29.109-65.016,65.016v105.651
	c0,26.93-21.831,48.762-48.762,48.762H268.19c-26.572,0-49.266,21.264-48.771,47.831c0.51,27.356-21.513,49.692-48.753,49.692l0,0
	c-67.326,0-121.904-54.578-121.904-121.904V239.75H32.509v56.889c0,76.303,61.856,138.158,138.158,138.158l0,0
	c38.163,0,70.182-26.305,78.915-61.772c2.769-11.247,12.304-19.497,23.886-19.497h19.103l32.508,24.381
	c44.884,0,81.27-36.386,81.27-81.27V158.48c0-8.977,7.277-16.254,16.254-16.254h32.508v-8.127c0-8.977,7.277-16.254,16.254-16.254
	h32.508c4.551,0,8.16-3.77,8.125-8.32C511.896,96.148,501.02,85.337,487.619,85.337z"/>
<path style="fill:#AFD755;" d="M503.873,150.353h-56.889c-17.929,0-32.508-14.583-32.508-32.508c0-4.488,3.635-8.127,8.127-8.127
	s8.127,3.639,8.127,8.127c0,8.964,7.294,16.254,16.254,16.254h56.889c4.492,0,8.127,3.639,8.127,8.127
	C512,146.714,508.365,150.353,503.873,150.353z"/>
<circle style="fill:#FF8087;" cx="463.24" cy="101.59" r="8.127"/>
<path style="fill:#DA7460;" d="M182.379,166.607h61.891l-26.593,37.233c3.503,4.5,6.876,9.106,10.089,13.835l37.671-52.739
	l-5.373-14.583h-98.426C168.83,155.43,175.748,160.853,182.379,166.607z"/>
<g>
	<path style="fill:#AFD755;" d="M325.08,321.023c-3.222,0-6.278-1.936-7.548-5.111L253.35,155.456
		C238.778,144.511,132.382,67.504,7.175,52.774c-4.452-0.524-7.643-4.563-7.119-9.02s4.516-7.679,9.024-7.123
		c138.833,16.333,251.285,103.623,256.008,107.333c1.119,0.881,1.992,2.044,2.524,3.369l65.016,162.539
		c1.667,4.171-0.365,8.897-4.532,10.567C327.111,320.833,326.088,321.023,325.08,321.023z"/>
	<path style="fill:#AFD755;" d="M70.877,218.395L45.834,162.05c-2.002-4.505-8.395-4.505-10.397,0l-25.042,56.345
		c-1.366,3.073-0.698,6.67,1.68,9.047l15.673,15.673c3.048,3.048,4.761,7.182,4.761,11.493v25.775c0,4.488,3.638,8.127,8.127,8.127
		s8.127-3.639,8.127-8.127v-25.775c0-4.311,1.712-8.445,4.761-11.493l15.673-15.673C71.575,225.064,72.242,221.468,70.877,218.395z"
		/>
</g>
<path style="fill:#DCFF82;" d="M390.095,182.861v113.778c0,35.907-29.109,65.016-65.016,65.016h-21.672l21.672,16.254
	c44.884,0,81.27-36.386,81.27-81.27V166.607l0,0C397.373,166.607,390.095,173.884,390.095,182.861z"/>
<path style="fill:#AFD755;" d="M308.826,337.273L308.826,337.273c-13.465,0-24.381,10.916-24.381,24.381v49.78
	c0,2.916-1.562,5.608-4.094,7.055l-8.003,4.574c-7.597,4.342-12.285,12.422-12.285,21.172v23.069h16.254v-23.075
	c0-2.909,1.571-5.611,4.095-7.056l32.815-19.658c7.352-4.404,11.852-12.345,11.852-20.915v-43.073
	C325.08,344.55,317.802,337.273,308.826,337.273z"/>
<path style="fill:#BEE86E;" d="M316.953,475.432c-2.064,0-4.119-0.778-5.706-2.341c-6.357-6.262-17.714-7.488-25.516-2.853
	c-5.794,3.448-11.698,5.194-17.563,5.194h-16.23c-4.492,0-8.127-3.639-8.127-8.127s3.635-8.127,8.127-8.127h16.23
	c2.897,0,6.008-0.976,9.254-2.905c5.73-3.417,12.373-5.222,19.214-5.222c9.936,0,19.175,3.718,26.024,10.468
	c3.198,3.151,3.23,8.294,0.079,11.492C321.151,474.622,319.048,475.432,316.953,475.432z"/>
<g>
</g>
<g>
</g>
<g>
</g>
<g>
</g>
<g>
</g>
<g>
</g>
<g>
</g>
<g>
</g>
<g>
</g>
<g>
</g>
<g>
</g>
<g>
</g>
<g>
</g>
<g>
</g>
<g>
</g>
</svg>
