<?xml version="1.0" encoding="iso-8859-1"?>
<!-- Generator: Adobe Illustrator 19.0.0, SVG Export Plug-In . SVG Version: 6.00 Build 0)  -->
<svg version="1.1" id="Capa_1" xmlns="http://www.w3.org/2000/svg" xmlns:xlink="http://www.w3.org/1999/xlink" x="0px" y="0px"
	 viewBox="0 0 512.001 512.001" style="enable-background:new 0 0 512.001 512.001;" xml:space="preserve">
<g>
	<path style="fill:#8CB4EB;" d="M252.001,140c-21.037,0-37.916-18.135-35.824-39.594C217.999,81.704,234.811,68,253.602,68h46.399
		V44h-45.913c-30.492,0-57.7,21.862-61.58,52.106C187.814,132.696,216.318,164,252,164h52c8.837,0,16,7.163,16,16v40h24v-40
		c0-22.091-17.909-40-40-40H252.001z"/>
	<path style="fill:#8CB4EB;" d="M308.001,196c-19.852,0-36-16.148-36-36s16.148-36,36-36h48v-24h-48c-33.086,0-60,26.914-60,60
		s26.914,60,60,60h92v-24H308.001z"/>
</g>
<path style="fill:#EBC9A0;" d="M272.001,284c-35.346,0-64-28.654-64-64v-24l-200-136c79.333,89,73,157.666,73,157.666
	s45.666,31,46,82.333c0,0,55,1.333,81,32c0-13.255,10.745-24,24-24h72v-24h-32V284z"/>
<g>
	<path style="fill:#8CB4EB;" d="M440.001,276h-104v80h16v-16c0-22.091,17.909-40,40-40h48V276z"/>
	<path style="fill:#8CB4EB;" d="M368.001,196c-44.079,0-79.85,35.686-79.998,79.766c-0.005,1.564-0.01,11.121-0.015,12.671
		C287.775,356.759,232.316,412,163.995,412l0,0c-68.48,0-123.994-55.514-123.994-123.994V268h-16v19.902
		c0,90.613,73.485,164.054,164.098,163.999l0,0C278.635,451.847,352,378.438,352,287.902V252c0-17.673,14.327-32,32-32h24v-24
		H368.001z"/>
</g>
<path style="fill:#F5DCB4;" d="M384.001,204c-26.51,0-48,21.49-48,48v35.902c0,78.938-62.158,143.67-140.183,147.791
	c-4.34,0.229-7.797,3.679-7.77,8.025l0,0c0.028,4.489,3.757,8.203,8.241,7.982c86.716-4.267,155.712-75.926,155.712-163.7v-36
	c0-17.673,14.327-32,32-32h24v-16H384.001z"/>
<path style="fill:#A5CDFF;" d="M504.001,244L504.001,244c-4.418,0-8,3.582-8,8v40h4c6.627,0,12-5.373,12-12v-28
	C512.001,247.582,508.419,244,504.001,244z"/>
<path style="fill:#EBC9A0;" d="M448.001,276h-40c-4.422,0-8-3.582-8-8s3.578-8,8-8h40c4.422,0,8,3.582,8,8S452.423,276,448.001,276z
	"/>
<path style="fill:#8CB4EB;" d="M472.001,260h-24c-8.837,0-16,7.163-16,16v16c0,13.255,10.745,24,24,24l0,0v-8
	c0-8.837,7.163-16,16-16h22.618c5.344,0,9.412-5.215,7.696-10.276C498.034,269.092,486.079,260,472.001,260z"/>
<path style="fill:#A5CDFF;" d="M496.001,324h-40c-17.648,0-32-14.355-32-32c0-4.418,3.578-8,8-8s8,3.582,8,8c0,8.824,7.18,16,16,16
	h40c4.422,0,8,3.582,8,8S500.423,324,496.001,324z"/>
<circle style="fill:#FF8087;" cx="456" cy="276" r="8"/>
<path style="fill:#A5CDFF;" d="M360.001,12.001L360.001,12.001c-4.418,0-8,3.582-8,8v40h4c6.627,0,12-5.373,12-12v-28
	C368.001,15.582,364.419,12.001,360.001,12.001z"/>
<path style="fill:#EBC9A0;" d="M304.001,44h-40c-4.422,0-8-3.582-8-8s3.578-8,8-8h40c4.422,0,8,3.582,8,8S308.423,44,304.001,44z"/>
<path style="fill:#8CB4EB;" d="M328.001,28.001h-24c-8.837,0-16,7.163-16,16v16c0,13.255,10.745,24,24,24l0,0v-8
	c0-8.837,7.163-16,16-16h22.618c5.344,0,9.412-5.215,7.696-10.276C354.034,37.092,342.079,28.001,328.001,28.001z"/>
<path style="fill:#A5CDFF;" d="M352.001,92h-40c-17.648,0-32-14.355-32-32c0-4.418,3.578-8,8-8s8,3.582,8,8c0,8.824,7.18,16,16,16
	h40c4.422,0,8,3.582,8,8S356.423,92,352.001,92z"/>
<circle style="fill:#FF8087;" cx="312" cy="44" r="8"/>
<path style="fill:#739BD7;" d="M320.001,344.845v61.901c0,8.487,3.371,16.626,9.373,22.627l0,0c4.243,4.243,6.627,9.999,6.627,16
	V492h16V344.845c0-15.83-20.532-22.047-29.313-8.875l0,0C320.936,338.598,320.001,341.686,320.001,344.845z"/>
<path style="fill:#AFB2BC;" d="M206.61,188.121l-136,24c-4.352,0.77-7.258,4.918-6.484,9.27c0.758,4.348,4.922,7.23,9.266,6.488
	l115.391-20.363l-75.07,95.543c-2.734,3.473-2.125,8.504,1.344,11.23c1.469,1.152,3.211,1.711,4.937,1.711
	c2.375,0,4.719-1.051,6.297-3.059l73.948-94.116c-0.062,0.399-0.237,0.758-0.237,1.174v120c0,4.418,3.578,8,8,8s8-3.582,8-8V220
	L206.61,188.121z"/>
<path style="fill:#A5CDFF;" d="M472.001,156L472.001,156c-4.418,0-8,3.582-8,8v40h4c6.627,0,12-5.373,12-12v-28
	C480.001,159.582,476.419,156,472.001,156z"/>
<path style="fill:#EBC9A0;" d="M416.001,188h-40c-4.422,0-8-3.582-8-8s3.578-8,8-8h40c4.422,0,8,3.582,8,8S420.423,188,416.001,188z
	"/>
<path style="fill:#8CB4EB;" d="M440.001,172h-24c-8.837,0-16,7.163-16,16v16c0,13.255,10.745,24,24,24l0,0v-8
	c0-8.837,7.163-16,16-16h22.618c5.344,0,9.412-5.214,7.696-10.276C466.034,181.092,454.079,172,440.001,172z"/>
<path style="fill:#A5CDFF;" d="M464.001,236h-40c-17.648,0-32-14.355-32-32c0-4.418,3.578-8,8-8s8,3.582,8,8c0,8.824,7.18,16,16,16
	h40c4.422,0,8,3.582,8,8S468.423,236,464.001,236z"/>
<circle style="fill:#FF8087;" cx="424" cy="188" r="8"/>
<path style="fill:#A5CDFF;" d="M424.001,68L424.001,68c-4.418,0-8,3.582-8,8v40h4c6.627,0,12-5.373,12-12V76
	C432.001,71.582,428.419,68,424.001,68z"/>
<path style="fill:#EBC9A0;" d="M368.001,100h-40c-4.422,0-8-3.582-8-8s3.578-8,8-8h40c4.422,0,8,3.582,8,8S372.423,100,368.001,100z
	"/>
<path style="fill:#8CB4EB;" d="M392.001,84h-24c-8.837,0-16,7.163-16,16v16c0,13.255,10.745,24,24,24l0,0v-8c0-8.837,7.163-16,16-16
	h22.618c5.344,0,9.412-5.215,7.696-10.276C418.034,93.092,406.079,84,392.001,84z"/>
<path style="fill:#A5CDFF;" d="M416.001,148h-40c-17.648,0-32-14.355-32-32c0-4.418,3.578-8,8-8s8,3.582,8,8c0,8.824,7.18,16,16,16
	h40c4.422,0,8,3.582,8,8S420.423,148,416.001,148z"/>
<circle style="fill:#FF8087;" cx="376" cy="100" r="8"/>
<path style="fill:#EBC9A0;" d="M396.001,500c-1.93,0-3.867-0.695-5.406-2.102c-2.938-2.691-7.852-5.898-14.594-5.898
	c-4.312,0-8.531,1.375-12.211,3.977c-3.734,2.633-8.32,4.023-13.258,4.023h-18.531c-4.422,0-8-3.582-8-8s3.578-8,8-8h18.531
	c1.594,0,3.031-0.391,4.031-1.094c14.148-10.012,33.875-8.684,46.844,3.195c3.258,2.984,3.477,8.047,0.492,11.305
	C400.321,499.125,398.165,500,396.001,500z"/>
<path style="fill:#739BD7;" d="M224.913,401.473l-4.363,4.78c-8.073,8.844-12.549,20.386-12.549,32.361V492h16v-18.951
	c0-9.814,5.975-18.639,15.087-22.283l0.012-0.005c10.614-4.245,18.543-13.329,21.316-24.419l1.279-5.118
	c1.469-5.875,0.396-12.097-2.957-17.141l-0.009-0.013C250.983,392.414,234.348,391.137,224.913,401.473z"/>
<g>
	<path style="fill:#EBC9A0;" d="M256.001,500c-1.93,0-3.867-0.695-5.406-2.102c-2.938-2.691-7.852-5.898-14.594-5.898
		c-4.312,0-8.531,1.375-12.211,3.977c-3.734,2.633-8.32,4.023-13.258,4.023h-18.531c-4.422,0-8-3.582-8-8s3.578-8,8-8h18.531
		c1.594,0,3.031-0.391,4.031-1.094c14.148-10.012,33.875-8.684,46.844,3.195c3.258,2.984,3.477,8.047,0.492,11.305
		C260.321,499.125,258.165,500,256.001,500z"/>
	<path style="fill:#EBC9A0;" d="M46.374,280.791L46.374,280.791c3.864,1.288,7.494-2.48,6.064-6.293l-16.586-44.231
		c-1.334-3.558-6.366-3.558-7.7,0l-16.586,44.231c-1.43,3.813,2.201,7.581,6.064,6.293l0,0c3.135-1.045,6.372,1.288,6.372,4.593
		v2.518c0,10.094,0.99,19.944,2.765,29.522c0.712,3.841,4.163,6.577,8.069,6.577l0,0c5.2,0,9.058-4.774,7.96-9.857
		c-1.821-8.426-2.794-17.166-2.794-26.137v-2.622C40.001,282.079,43.239,279.746,46.374,280.791z"/>
</g>
<path style="fill:#739BD7;" d="M304.001,292h-32c-39.703,0-72-32.301-72-72v-19.766L3.501,66.618
	C-0.147,64.133-1.1,59.157,1.384,55.5c2.484-3.641,7.453-4.59,11.117-2.117l200,136c2.188,1.492,3.5,3.969,3.5,6.617v24
	c0,30.879,25.125,56,56,56h32c4.422,0,8,3.582,8,8S308.423,292,304.001,292z"/>
<g>
</g>
<g>
</g>
<g>
</g>
<g>
</g>
<g>
</g>
<g>
</g>
<g>
</g>
<g>
</g>
<g>
</g>
<g>
</g>
<g>
</g>
<g>
</g>
<g>
</g>
<g>
</g>
<g>
</g>
</svg>
