<svg height="512" viewBox="0 0 60 60" width="512" xmlns="http://www.w3.org/2000/svg"><g id="020---Alien" transform="translate(-1)"><path id="Shape" d="m26.3 15.28c-1.3777852.9651707-3.2122148.9651707-4.59 0-.3921222-.3921222-1.0278778-.3921222-1.42 0s-.3921222 1.0278778 0 1.42c1.72 1.72 5.7 1.72 7.42 0 .3811429-.3888435.3811429-1.0111565 0-1.4-.3845144-.3933107-1.0144848-.4022465-1.41-.02z"/><path id="Shape" d="m61 52.41c-.49-2-2.6-8.41-9-8.41-7.33 0-8.58 6-14 6-4.66 0-5.7-2.92-5.93-4.32.5761406-.364828.9266861-.9980714.93-1.68.0440436-3.9276494-.4437171-7.8431902-1.45-11.64l2.33.46c.5449561.1131925 1.1124321-.0058252 1.5659863-.328437.4535541-.3226117.752157-.8196334.8240137-1.371563 4 2.77 6.28 9.45 7.07 11.77.2569144.7265093.968021 1.1914254 1.7365765 1.1353606.7685554-.0560648 1.4046632-.619258 1.5534235-1.3753606 1.54-8.11-1.59-14.54-8.81-18.21-.0647949-.7317196-.5255013-1.3690301-1.2-1.66l-5.32-2.28c1.3163907-3.3730585 2.190328-6.9024206 2.6-10.5h2.28c.4870363 1.3775467 1.8956662 2.2038721 3.3357331 1.9567957 1.4400668-.2470764 2.492694-1.4956868 2.492694-2.9567957s-1.0526272-2.70971927-2.492694-2.95679568c-1.4400669-.24707641-2.8486968.57924899-3.3357331 1.95679568h-2.18c0-3.85-3.82-8-10-8s-10 4.15-10 8h-2.18c-.4870363-1.37754669-1.89566623-2.20387209-3.33573306-1.95679568s-2.49269406 1.49568678-2.49269406 2.95679568 1.05262723 2.7097193 2.49269406 2.9567957 2.84869676-.579249 3.33573306-1.9567957h2.28c.4154302 3.5878453 1.2926925 7.106978 2.61 10.47l-5.32 2.28c-.6744987.2909699-1.1352051.9282804-1.2 1.66-7.19 3.67-10.35 10.1-8.81 18.21.14876034.7561026.78486807 1.3192958 1.55342354 1.3753606s1.47966206-.4088513 1.73657646-1.1353606c.79-2.32 3.07-9 7.07-11.76.0743669.5501058.3740202 1.044558.8272641 1.3650526.4532438.3204946 1.0193013.4381977 1.5627359.3249474l2.33-.48c-1.0102768 3.8132556-1.5013744 7.7454004-1.46 11.69-.010085.724496.3724667 1.3977871 1 1.76.28 9.3 5.44 14.24 15 14.24 12.19 0 17.61-9 22-9 2.2187576.0837363 4.3159169 1.0353582 5.84 2.65.4060893.4320111 1.0557122.528591 1.5699151.2334005.5142029-.2951906.758377-.9048762.5900849-1.4734005zm-22-44.41c.5522847 0 1 .44771525 1 1s-.4477153 1-1 1-1-.44771525-1-1 .4477153-1 1-1zm-30 2c-.55228475 0-1-.44771525-1-1s.44771525-1 1-1 1 .44771525 1 1-.44771525 1-1 1zm35.84 31.1c-1.56-4.33-4-9.69-8.07-12.06l.65-2.59c5.66 3.1 8.26 8.23 7.42 14.65zm-20.84-39.1c5.46 0 8 3.58 8 6 0 4.74-2 10.21-2.68 12h-10.65c-.67-1.79-2.67-7.26-2.67-12 0-2.42 2.54-6 8-6zm-20.84 39.1c-.84-6.42 1.76-11.55 7.42-14.65l.65 2.55c-4.06 2.41-6.51 7.77-8.07 12.1zm12.91-10.73-2.33.46-1.56-6.25 6-2.58h11.61l6 2.58-1.56 6.25-2.33-.46c-.6829529-.1344993-1.3867133.0957625-1.8580811.6079413-.4713677.5121788-.642535 1.2325961-.4519189 1.9020587.9690293 3.6261771 1.4433255 7.3667258 1.41 11.12-.1 0 1.29 0-14 0-.0463722-3.751459.4144651-7.4919774 1.37-11.12.1892737-.6674539.0191274-1.3853188-.449579-1.8968201-.4687063-.5115013-1.1690112-.7435635-1.850421-.6131799zm36.93 18.63c-5.54 0-10.27 9-22 9-8.28 0-12.63-4-13-12h12.12c.35 1.93 1.81 6 7.88 6 6.54 0 7.39-6 14-6 3.38 0 5.24 2.5 6.21 4.58-1.5478098-1.018395-3.3572512-1.5671315-5.21-1.58z"/><path id="Shape" d="m21 34h3.92l-2.7 3.38c-.2591791.2745753-.3416065.6717212-.2131034 1.0267597s.4460237.6074267.8209007.6525109c.3748771.0450841.7431847-.1248237.9522027-.4392706l4-5c.2371517-.3001041.2823411-.7091964.1164082-1.0538262s-.5139159-.5644168-.8964082-.5661738h-3.92l2.7-3.38c.3426824-.4287515.2757366-1.0535791-.15-1.4-.2078446-.1666477-.473593-.2434734-.7382977-.213436s-.5064822.1644547-.6717023.373436l-4 5c-.2371517.3001041-.2823411.7091964-.1164082 1.0538262s.5139159.5644168.8964082.5661738z"/><path id="Shape" d="m24 14c2.7614237 0 5-2.2385763 5-5 0-2.76142375-2.2385763-5-5-5s-5 2.23857625-5 5c0 2.7614237 2.2385763 5 5 5zm0-8c1.6568542 0 3 1.34314575 3 3 0 1.6568542-1.3431458 3-3 3s-3-1.3431458-3-3c0-1.65685425 1.3431458-3 3-3z"/><circle id="Oval" cx="24" cy="9" r="1"/></g></svg>